Coordinates
version=1
nRows=16
nColumns=33
inDegrees=yes

Units are S.I. units (second, meters, Newtons, ...)
Angles are in degrees.

endheader
time	ground_thorax_rot_x	ground_thorax_rot_y	ground_thorax_rot_z	ground_thorax_tx	ground_thorax_ty	ground_thorax_tz	clav_prot_r	clav_elev_r	scapula_abduction_r	scapula_elevation_r	scapula_upward_rot_r	scapula_winging_r	shoulder_elv_r	plane_of_elev_r	axial_rot_r	elbow_flexion_r	pro_sup_r	wrist_flex_r	wrist_dev_r	clav_prot_l	clav_elev_l	scapula_abduction_l	scapula_elevation_l	scapula_upward_rot_l	scapula_winging_l	shoulder_elv_l	plane_of_elev_l	axial_rot_l	elbow_flexion_l	pro_sup_l	wrist_flex_l	wrist_dev_l
      4.08000000	      1.20501019	      4.84285449	     12.26867238	     -0.11932733	      1.03421663	      0.03193864	      2.91620606	      9.56568576	     14.14683352	      6.42308921	     20.73737868	     -8.95703843	     21.33359641	    -72.81260351	     53.74003265	     63.72801593	    -19.23316798	     70.00000021	    -24.99999983	     15.08713278	     -6.29778704	    -23.98698214	    -20.01903525	    -45.00000000	      2.82555920	     63.20661368	    -34.71458391	     -1.50078203	     71.69896582	     15.92454511	      0.28738262	    -24.99999983
      4.09000000	      1.18546080	      4.85414870	     12.33403802	     -0.11910132	      1.03430683	      0.03201762	      3.05694806	      9.47613059	     14.51714940	      6.31262647	     20.81856570	     -9.07017306	     21.94776820	    -72.82077957	     53.68639241	     64.74466252	    -19.79865758	     68.40945117	    -24.99999983	     15.23055334	     -6.61713823	    -24.22198396	    -19.71539654	    -45.00000000	      2.96299127	     63.68975350	    -34.43679381	     -1.14975509	     71.92329244	     14.09658280	      3.96452604	    -24.99999983
      4.10000000	      1.08887129	      4.84061986	     12.35754237	     -0.11871107	      1.03425168	      0.03208510	      3.08526022	      9.48842261	     14.77916752	      6.23177875	     21.07509343	     -9.18285811	     22.07017335	    -72.43027573	     53.60019747	     65.14476720	    -19.74396384	     68.36956583	    -24.99999983	     15.34413997	     -6.67782238	    -24.33231879	    -19.53865450	    -44.74291446	      3.06460151	     64.00508422	    -34.06599600	     -1.08475649	     72.02493804	     14.05354744	      4.04526812	    -24.99999983
      4.11000000	      1.03369376	      4.85886657	     12.28385592	     -0.11833644	      1.03418083	      0.03210746	      3.13709787	      9.49461943	     15.09199203	      6.14519823	     21.33549641	     -9.31176419	     22.27144074	    -72.04586527	     53.44492546	     65.58730298	    -19.74838069	     68.17417388	    -24.99999983	     15.48515733	     -6.79361887	    -24.46719884	    -19.28118101	    -44.42075589	      3.19368897	     64.35878343	    -33.58382777	     -1.04757702	     72.07047163	     13.97775898	      4.22836373	    -24.99999983
      4.12000000	      1.25848732	      4.83529654	     12.36740236	     -0.11820239	      1.03416428	      0.03221250	      3.43588427	      9.60738522	     15.73752711	      6.18618405	     21.47254857	     -9.52861038	     23.40760175	    -72.41188485	     52.92145458	     67.40756620	    -19.66784094	     62.05445319	    -24.99999983	     15.59840318	     -7.43208479	    -24.81332269	    -18.94442549	    -45.00000000	      3.29397327	     65.13096242	    -32.77839316	     -0.34754058	     72.21008232	     12.54034679	      8.53429343	    -23.67502444
      4.13000000	      1.20405413	      4.85865949	     12.24399616	     -0.11775684	      1.03406667	      0.03206862	      3.49595417	      9.55452143	     16.05952115	      6.05916968	     21.70022716	     -9.64864898	     23.71658643	    -71.96019085	     52.69414475	     67.67579170	    -19.40005416	     61.74768851	    -24.99999983	     15.74870534	     -7.54799038	    -24.92271778	    -18.63241464	    -44.55423603	      3.42859137	     65.46807409	    -32.15500176	     -0.38030841	     72.09429747	     12.50894047	      8.76867138	    -23.45214709
      4.14000000	      1.11618653	      4.79598822	     12.40334416	     -0.11753994	      1.03383990	      0.03203714	      3.69154035	      9.45018707	     16.56829575	      5.92177037	     21.81968659	     -9.80805131	     24.83244650	    -72.10612194	     52.26771254	     69.22224401	    -17.18704694	     55.00658110	    -24.99999983	     15.88651183	     -7.66383150	    -25.04805322	    -18.37269610	    -44.22152898	      3.54736795	     65.80382380	    -31.63968339	     -0.09899302	     72.36879066	     11.46937244	     12.82847647	    -19.71348567
      4.15000000	      1.07657182	      4.83888205	     12.30651119	     -0.11716170	      1.03382873	      0.03188089	      3.79080336	      9.33156313	     16.96128311	      5.75089309	     22.01626079	     -9.94199231	     25.09929637	    -71.58467611	     52.07275430	     69.29016625	    -17.03420648	     54.72166661	    -24.99999983	     16.07833049	     -7.89841598	    -25.22151040	    -17.94203192	    -43.76188711	      3.71341513	     66.16786387	    -31.01002900	     -0.19473605	     72.02111394	     11.47642941	     12.90797246	    -19.57282987
      4.16000000	      1.04508829	      4.79316202	     12.42352118	     -0.11697207	      1.03366529	      0.03175653	      3.99125628	      9.26141085	     17.61761943	      5.58146419	     22.32053736	    -10.16891079	     25.87294884	    -71.61630256	     51.82611017	     70.48047252	    -15.70587618	     48.49762655	    -24.99999983	     16.30930438	     -8.11492150	    -25.46281419	    -17.52231761	    -43.29313201	      3.91190463	     66.26530220	    -30.39214726	     -0.00742865	     71.78049105	     10.35418381	     15.59113666	    -16.88555681
      4.17000000	      0.97821921	      4.82465963	     12.34524212	     -0.11661364	      1.03366679	      0.03153218	      4.14000799	      9.04713636	     18.08169213	      5.34895381	     22.45712189	    -10.30841933	     26.09392440	    -70.99909688	     51.67584138	     70.33179754	    -15.59493368	     48.22594713	    -24.99999983	     16.52147172	     -8.39260299	    -25.66692671	    -17.04291283	    -42.81038503	      4.09026101	     66.62341902	    -29.71976593	     -0.19191393	     71.19406420	     10.37278577	     15.67625194	    -16.70351849
      4.18000000	      0.90182162	      4.84367492	     12.34499679	     -0.11631483	      1.03374936	      0.03129196	      4.31877676	      8.80112434	     18.61301865	      5.08672576	     22.59942992	    -10.46258360	     26.27271945	    -70.39831573	     51.59440169	     70.06100643	    -15.61645729	     47.69517229	    -24.99999983	     16.74031398	     -8.68659618	    -25.87756044	    -16.53747954	    -42.30386239	      4.27335546	     66.90181269	    -29.01381462	     -0.37723707	     70.34661692	     10.34243494	     15.90616132	    -16.35459516
      4.19000000	      0.83901822	      4.69584982	     12.19569326	     -0.11589282	      1.03303895	      0.03086522	      4.58423688	      8.66472174	     19.61694727	      4.78080873	     23.15773730	    -10.81936742	     26.70387372	    -70.26369973	     51.59518675	     70.86868485	    -16.11500381	     42.41142420	    -24.99999983	     16.93432947	     -8.42143040	    -25.96346754	    -16.32209013	    -41.31735530	      4.46965789	     66.34747687	    -27.88384019	      0.10001809	     69.50077780	      8.70983598	     18.75203752	    -13.67228658
      4.20000000	      0.72834157	      4.70828215	     12.37665728	     -0.11594055	      1.03332641	      0.03070513	      4.96285227	      8.09427117	     20.04968981	      4.46442518	     22.62002020	    -10.84546557	     27.71194773	    -69.70607181	     50.97455308	     71.35670567	    -14.03149269	     37.49149357	    -24.99999983	     17.27194316	     -9.15481976	    -26.37045639	    -15.44128554	    -40.87722642	      4.71668224	     66.82601001	    -27.72639647	     -0.18737314	     68.75451114	      7.13397167	     20.77720524	    -11.50005960
      4.21000000	      0.64566048	      4.74896264	     12.48611130	     -0.11560859	      1.03315148	      0.03033011	      5.17069174	      7.84631259	     20.66637331	      4.18621837	     22.81519983	    -11.03179572	     27.78197443	    -69.04885900	     51.08026213	     70.60392228	    -14.01422961	     37.04886722	    -24.99999983	     17.50246022	     -9.42833715	    -26.62149933	    -14.96287479	    -40.39316012	      4.90448486	     67.01729100	    -26.89222415	     -0.54807084	     67.52822046	      7.23427816	     20.80442929	    -11.24869880
      4.22000000	      0.57083185	      4.56371394	     12.49418530	     -0.11502259	      1.03276186	      0.02988946	      5.26833074	      7.67936997	     21.44618524	      3.82468330	     23.49443440	    -11.31648927	     27.69616897	    -68.48436014	     51.34438239	     70.01440276	    -14.41508583	     35.15062636	    -24.99999983	     17.62694866	     -9.25846244	    -26.67554389	    -14.77535829	    -39.66235355	      5.04277574	     66.50687893	    -25.60146889	     -0.28740369	     65.82419470	      6.84688726	     21.32894888	    -10.49216055
      4.23000000	      0.40540688	      4.49455278	     12.46311393	     -0.11489578	      1.03218263	      0.02935326	      5.65207430	      7.27046435	     22.42397372	      3.41008062	     23.69423740	    -11.59694307	     27.79981552	    -67.96779351	     51.22054565	     69.76550151	    -15.22519166	     32.04100833	    -24.99999983	     17.97658432	     -9.31685719	    -27.07993133	    -14.32039654	    -38.82582105	      5.36852519	     66.25689277	    -24.74825334	     -0.44324007	     64.49816363	      5.87002026	     22.70106085	     -9.32556216
